<svg height="511pt" viewBox="-8 1 511 511.999" width="511pt" xmlns="http://www.w3.org/2000/svg"><path d="m385.261719 160.863281c-77.066407 46.945313-198.195313 46.945313-275.257813 0-77.066406-46.949219-152.363281 78.609375-49.609375 117.699219 0-1.660156 374.472657-1.660156 374.472657 0 102.753906-39.089844 27.460937-164.648438-49.605469-117.699219zm0 0" fill="#767678"/><path d="m166.976562 368.285156c0 38.511719-31.222656 69.730469-69.734374 69.730469-38.507813 0-69.730469-31.21875-69.730469-69.730469 0-38.511718 31.222656-69.730468 69.730469-69.730468 38.511718 0 69.734374 31.21875 69.734374 69.730468zm0 0" fill="#b24e2f"/><path d="m386.210938 504.5h-277.160157c-16.335937 0-29.582031-13.246094-29.582031-29.585938v-14.242187c0-49.230469 39.90625-89.140625 89.136719-89.140625h158.054687c49.230469 0 89.136719 39.910156 89.136719 89.140625v14.242187c0 16.339844-13.246094 29.585938-29.585937 29.585938zm0 0" fill="#00c140"/><path d="m196.84375 452.445312-1.882812-80.914062h-26.355469c-49.230469 0-89.136719 39.910156-89.136719 89.140625v14.242187c0 16.339844 13.246094 29.585938 29.582031 29.585938h77.308594c-1.261719-31.890625 10.484375-52.054688 10.484375-52.054688zm0 0" fill="#00a62c"/><path d="m286.199219 401.476562v47.199219c0 8.210938-6.65625 14.863281-14.863281 14.863281h-47.40625c-8.207032 0-14.863282-6.652343-14.863282-14.863281v-47.199219h-82.042968v103.023438h241.21875v-103.023438zm0 0" fill="#f4e74d"/><path d="m196.84375 452.445312-1.1875-50.96875h-68.636719v103.023438h59.339844c-1.261719-31.890625 10.484375-52.054688 10.484375-52.054688zm0 0" fill="#dfca00"/><path d="m135.628906 366.847656-23.164062 13.511719c-10.828125 6.316406-11.78125 21.601563-1.820313 29.214844l56.730469 43.355469c8.746094 6.683593 20.945312 6.484374 29.46875-.484376l54.429688-44.5zm0 0" fill="#73da8c"/><path d="m359.636719 366.847656 23.164062 13.511719c10.828125 6.316406 11.777344 21.601563 1.820313 29.214844l-56.730469 43.355469c-8.75 6.683593-20.945313 6.484374-29.46875-.484376l-54.433594-44.5zm0 0" fill="#73da8c"/><path d="m127.019531 277.589844c0 23.613281-19.140625 42.757812-42.757812 42.757812-23.613281 0-42.757813-19.144531-42.757813-42.757812 0-23.617188 19.144532-42.761719 42.757813-42.761719 23.617187 0 42.757812 19.144531 42.757812 42.761719zm0 0" fill="#ff9a5c"/><path d="m453.761719 277.589844c0 23.613281-19.144531 42.757812-42.757813 42.757812-23.617187 0-42.761718-19.144531-42.761718-42.757812 0-23.617188 19.144531-42.761719 42.761718-42.761719 23.613282 0 42.757813 19.144531 42.757813 42.761719zm0 0" fill="#ffbd86"/><path d="m263.148438 412.328125h-31.035157c-81.316406 0-147.851562-66.53125-147.851562-147.851563v-67.929687c0-89.851563 73.515625-163.367187 163.371093-163.367187 89.851563 0 163.367188 73.515624 163.367188 163.367187v67.929687c.003906 81.320313-66.53125 147.851563-147.851562 147.851563zm0 0" fill="#fed2a4"/><path d="m162.484375 300.699219c-7.621094-40.347657 4.835937-81.636719 32.121094-112.328125 40.570312-45.636719 53.027343-155.1875 53.027343-155.1875-89.855468 0-163.371093 73.515625-163.371093 163.371094v67.925781c0 80.765625 65.652343 146.949219 146.21875 147.84375-42.996094-35.605469-61.320313-76.285157-67.996094-111.625zm0 0" fill="#ffbd86"/><path d="m183.609375 302.429688c0-13.179688-13.417969-23.867188-29.972656-23.867188-16.554688 0-29.972657 10.6875-29.972657 23.867188 0 13.183593 13.417969 23.871093 29.972657 23.871093 16.554687 0 29.972656-10.6875 29.972656-23.871093zm0 0" fill="#ff89ca"/><path d="m371.601562 302.429688c0-13.179688-13.421874-23.867188-29.972656-23.867188-16.554687 0-29.972656 10.6875-29.972656 23.867188 0 13.183593 13.417969 23.871093 29.972656 23.871093 16.550782 0 29.972656-10.6875 29.972656-23.871093zm0 0" fill="#ff89ca"/><path d="m321.332031 160.792969s-69.582031 69.550781-158.015625 74.035156c-32.054687 1.625-51.792968 18.625-63.925781 39.636719-9.683594 16.769531-35.402344 10.726562-36.835937-8.585938-3.46875-46.742187 1.175781-100.582031 31.386718-136.28125 1.328125 0 227.390625 31.195313 227.390625 31.195313zm0 0" fill="#dd6642"/><path d="m66.480469 189.3125s37.265625 32.464844 101.707031 45.203125c86.117188-6.703125 153.144531-73.722656 153.144531-73.722656s-226.0625-31.195313-227.390625-31.195313c-14.195312 16.773438-22.746094 37.550782-27.460937 59.714844zm0 0" fill="#b24e2f"/><path d="m321.332031 160.792969s12.902344 48.417969 44.515625 74.035156c11.191406 9.074219 19.488282 25.277344 25.53125 42.421875 5.757813 16.34375 29.472656 14.46875 32.816406-2.535156 9.777344-49.71875 14.027344-113.125-18.253906-141.484375zm0 0" fill="#dd6642"/><path d="m352.671875 221.773438c32.667969-4.382813 60.878906-16.261719 78.21875-25.0625-1.664063-25.914063-8.652344-49.164063-24.949219-63.480469l-84.609375 27.5625s9.269531 34.78125 31.339844 60.980469zm0 0" fill="#b24e2f"/><path d="m78.070312 139.710938 169.5625 33.871093 169.558594-33.871093s-44.148437-132.210938-169.558594-132.210938c-125.414062 0-169.5625 132.210938-169.5625 132.210938zm0 0" fill="#ff9000"/><path d="m315.707031 159.984375c-34.292969-14.121094-60.847656-30.140625-79.777343-43.5625-31.855469-22.585937-29.945313-70.644531 3.785156-90.320313 22.261718-12.988281 45.523437-14.285156 45.792968-14.300781-11.707031-2.757812-24.316406-4.300781-37.875-4.300781-125.414062 0-169.5625 132.210938-169.5625 132.210938l169.5625 33.871093zm0 0" fill="#f88000"/><path d="m433.980469 113.914062c-73.519531-21.261718-114.039063 36.585938-186.347657 36.585938-72.308593 0-112.828124-57.847656-186.351562-36.585938-73.523438 21.261719-49.539062 115.671876-49.539062 115.671876-10.675782-48.03125 43.339843-102.183594 98.261718-68.722657 77.0625 46.945313 198.191406 46.945313 275.257813 0 54.921875-33.457031 108.9375 20.691407 98.261719 68.722657 0 0 23.980468-94.414063-49.542969-115.671876zm0 0" fill="#ffbe73"/><path d="m265.953125 277.277344c-10.789063 8.367187-25.855469 8.367187-36.640625 0-3.273438-2.539063-7.988281-1.941406-10.523438 1.332031-2.539062 3.273437-1.945312 7.984375 1.328126 10.523437 8.101562 6.28125 17.808593 9.421876 27.515624 9.421876 9.707032 0 19.414063-3.140626 27.511719-9.421876 3.273438-2.539062 3.871094-7.25 1.332031-10.523437-2.539062-3.273437-7.253906-3.871094-10.523437-1.332031zm0 0"/><path d="m166.976562 266.402344c-7.140624 0-13.742187 3.5625-17.660156 9.53125-2.277344 3.460937-1.3125 8.109375 2.148438 10.382812 3.460937 2.277344 8.113281 1.3125 10.386718-2.148437 1.640626-2.496094 4.128907-2.765625 5.125-2.765625.992188 0 3.441407.296875 5.121094 2.765625 3.503906 5.144531 9.117188 2.984375 10.386719 2.148437 3.460937-2.273437 4.425781-6.921875 2.152344-10.382812-3.921875-5.96875-10.523438-9.53125-17.660157-9.53125zm0 0"/><path d="m328.289062 266.402344c-7.140624 0-13.738281 3.5625-17.660156 9.53125-2.273437 3.460937-1.3125 8.109375 2.152344 10.382812 3.460938 2.277344 8.109375 1.3125 10.382812-2.148437 1.640626-2.496094 4.128907-2.765625 5.125-2.765625.992188 0 3.441407.296875 5.121094 2.765625 3.503906 5.144531 9.117188 2.984375 10.386719 2.148437 3.460937-2.273437 4.425781-6.921875 2.152344-10.382812-3.921875-5.96875-10.523438-9.53125-17.660157-9.53125zm0 0"/><path d="m493.769531 178.816406c-4.574219-37.578125-24.527343-62.515625-57.703125-72.105468-9.964844-2.882813-19.371094-4.375-28.351562-4.816407-22.664063-39.746093-72.1875-101.894531-160.082032-101.894531-38.238281 0-72.972656 11.785156-103.238281 35.03125-3.285156 2.523438-3.90625 7.234375-1.382812 10.519531 2.523437 3.285157 7.230469 3.902344 10.519531 1.378907 27.585938-21.1875 59.246094-31.929688 94.101562-31.929688 75.417969 0 120.292969 50.640625 142.886719 87.304688-23.476562 2.273437-44.144531 11.136718-64.382812 19.816406-23.925781 10.265625-48.671875 20.878906-78.503907 20.878906-29.835937 0-54.578124-10.613281-78.503906-20.875-20.234375-8.679688-40.898437-17.542969-64.367187-19.820312 8.039062-13.078126 17.066406-25.015626 26.964843-35.550782 2.835938-3.019531 2.6875-7.765625-.332031-10.601562-3.015625-2.835938-7.765625-2.6875-10.601562.332031-12.445313 13.25-23.59375 28.523437-33.210938 45.40625-8.988281.441406-18.410156 1.933594-28.382812 4.820313-33.179688 9.589843-53.132813 34.527343-57.703125 72.105468-3.324219 27.339844 2.71875 51.597656 2.976562 52.617188.003906.015625.011719.03125.015625.050781 3.757813 16.621094 13.9375 30.976563 29.683594 41.890625-.417969 5.050781-.085937 10.214844 1.078125 15.335938 1.847656 8.140624 5.597656 15.527343 10.898438 21.671874-16.492188 14.582032-26.136719 35.667969-26.136719 57.902344 0 33.996094 22.125 63.5625 53.800781 73.601563-1.210938 6.136719-1.84375 12.421875-1.84375 18.785156v14.242187c0 20.449219 16.632812 37.085938 37.082031 37.085938h277.160157c20.449218 0 37.085937-16.636719 37.085937-37.085938v-14.242187c0-23.851563-8.585937-46.375-24.289063-64.0625 3.304688-14.753906-21.050781-27.753906-21.050781-27.753906 11.210938-12.320313 20.351563-26.304688 27.09375-41.371094 16.269531.382813 24.753907-2.296875 32.917969-7.484375 11.328125-7.203125 19.171875-18.386719 22.089844-31.492188 1.125-5.0625 1.4375-10.15625 1.007812-15.125 15.792969-10.953124 26.058594-25.433593 29.78125-42.167968h-.003906c.644531-2.621094 6.125-26.078125 2.925781-52.398438zm-430.40625-57.699218c39.046875-11.289063 68.582031 1.378906 99.851563 14.792968 25.320312 10.859375 51.503906 22.089844 84.417968 22.089844 32.914063 0 59.097657-11.230469 84.417969-22.089844 31.265625-13.414062 60.800781-26.082031 99.847657-14.792968 25.226562 7.296874 40.636718 24.921874 45.882812 52.4375-4.804688-6.558594-10.703125-12.460938-17.550781-17.363282-23.527344-16.839844-53.011719-17.488281-78.871094-1.734375-29.382813 17.902344-79.210937 34.117188-133.726563 34.117188-50.125 0-97.617187-12.113281-133.730468-34.117188-12.457032-7.589843-25.753906-11.371093-38.824219-11.371093-14.058594 0-27.851563 4.378906-40.042969 13.105468-6.851562 4.902344-12.75 10.804688-17.554687 17.367188 5.246093-27.519532 20.65625-45.144532 45.882812-52.441406zm153.203125 324.890624 31.066406-25.398437 31.066407 25.398437s2.566406 10.03125-7.363281 10.03125c-9.933594 0-39.839844 0-47.40625 0-7.566407 0-7.363282-10.03125-7.363282-10.03125zm-101.371094-42.394531c-2.722656-2.082031-4.164062-5.242187-3.953124-8.664062.214843-3.425781 2.035156-6.378907 5-8.109375l12.058593-7.035156c26.074219 23.464843 59.972657 38.191406 96.785157 39.863281l-32.988282 26.972656c-5.863281 4.789063-14.15625 4.925781-20.167968.328125zm116.917969 1.214844c-67.910156 0-126.226562-49.257813-138.140625-115.5625 4.847656-2.273437 9.015625-6.03125 11.910156-11.046875 13.015626-22.535156 32.464844-34.613281 57.8125-35.898438 47.292969-2.398437 89.125-22.898437 116.792969-40.484374 15.511719-1.605469 30.789063-4.359376 45.511719-8.253907 7.433594 15.347657 18.902344 33.925781 35.125 47.074219 8.734375 7.078125 16.53125 20.230469 23.179688 39.089844 2.664062 7.558594 8.574218 13.042968 15.824218 15.238281-6.585937 29.355469-22.652344 56.101563-45.808594 75.976563-25.449218 21.839843-57.828124 33.871093-91.171874 33.871093h-31.035157zm-182.234375-119.4375c-2.140625-9.417969-.308594-19.042969 4.703125-26.847656 3.550781 35.558593 23.617188 32.871093 24.558594 32.988281 1.292969 7.304688 3.089844 14.421875 5.363281 21.316406-22.929687-.238281-32.542968-18.273437-34.625-27.457031zm34.417969-126.558594c7.328125 1.28125 14.675781 4.09375 21.804687 8.433594 39.566407 24.105469 90.3125 36.1875 141.089844 36.257813-23.585937 11.847656-52.710937 22.214843-84.257812 23.816406-30.753906 1.558594-54.316406 16.152344-70.039063 43.375-3.28125 5.683594-8.992187 6.671875-13.242187 5.699218-4.324219-.988281-9.125-4.421874-9.617188-11.089843-3.226562-43.488281 1.582032-79.273438 14.261719-106.492188zm323.753906 122.183594c-3.488281.253906-7.835937-1.257813-9.601562-6.257813-7.582031-21.511718-16.960938-36.90625-27.878907-45.753906-13.398437-10.859375-23.269531-26.347656-29.972656-39.71875 17.367188-5.652344 33.75-12.992187 48.566406-22.019531 8.390626-5.109375 17.082032-8.097656 25.695313-8.96875 11.183594 24.972656 11.878906 64.621094 1.976563 114.96875-1.046876 5.320313-5.222657 7.492187-8.785157 7.75zm-389.382812-55.039063c-3.699219-20.800781 6.417969-44.21875 25.097656-57.589843 7.582031-5.425781 15.808594-8.722657 24.304687-9.886719-9.039062 21.980469-13.710937 48.394531-13.96875 78.882812-7.144531 5.359376-12.570312 12.367188-15.96875 20.222657-10.625-8.703125-17.289062-19.492188-19.464843-31.628907zm16.34375 142.308594c0-18.628906 8.40625-36.261718 22.683593-48.039062 8.066407 5.027344 19.523438 8.273437 32.480469 7.25 6.824219 15.273437 16.023438 29.214844 27.109375 41.371094 0 0-23.339844 9.222656-21.027344 27.777343-8.085937 9.125-14.285156 19.570313-18.394531 30.800781-25.257812-8.234374-42.851562-31.9375-42.851562-59.160156zm51.957031 106.628906v-14.242187c0-17.488281 5.558594-34.285156 15.773438-48.214844 1.011718 1.113281 16.777343 13.339844 16.777343 13.339844v71.203125h-10.46875c-12.175781 0-22.082031-9.90625-22.082031-22.085938zm321.328125-14.242187v14.242187c0 12.179688-9.90625 22.085938-22.085937 22.085938h-251.691407v-59.738281l28.300781 21.625c21.496094 16.460937 40.34375-1.921875 40.34375-1.921875 3.300782 8.238281 11.363282 14.074218 20.765626 14.074218h47.402343c9.40625 0 17.46875-5.835937 20.765625-14.074218 0 0 19.839844 16.667968 40.347656 1.921875l28.296876-21.625v34.277343c0 4.144532 3.359374 7.5 7.5 7.5 4.140624 0 7.5-3.355468 7.5-7.5v-45.742187s15.777343-12.238281 16.792968-13.355469c10.230469 13.90625 15.761719 30.640625 15.761719 48.230469zm-24.277344-65.722656c.214844 3.421875-1.226562 6.582031-3.953125 8.664062l-56.730468 43.355469c-6.011719 4.597656-14.304688 4.460938-20.164063-.328125l-32.992187-26.972656c61.464843-3.476563 95.839843-39.007813 96.785156-39.859375l12.058594 7.03125c2.960937 1.726562 4.785156 4.683594 4.996093 8.109375zm61.398438-109.699219c-2.046875 9.191406-10.335938 25.078125-34.683594 27.601562 1.964844-5.945312 3.5625-12.015624 4.792969-18.1875 8.152344-2.800781 14.289062-9.65625 16.027344-18.503906 1.621093-8.234375 2.960937-16.175781 4.042968-23.832031 8.527344 8.34375 12.527344 20.761719 9.820313 32.921875zm11.65625-27.617188c-3.988281-9.203124-10.683594-17.199218-19.441407-22.675781 2.8125-30.691406.722657-56.023437-6.253906-75.703125 7.007813 1.5625 13.792969 4.605469 20.121094 9.132813 19.273438 13.796875 29.433594 38.292969 24.699219 59.574219-.003907.015624-.003907.03125-.007813.046874-2.527344 11.3125-9.078125 21.40625-19.117187 29.625zm0 0"/></svg>